<svg width="210" height="66" viewBox="0 0 210 66" fill="none" xmlns="http://www.w3.org/2000/svg">
<path d="M35.1475 1.8214C35.084 1.80318 35.011 1.79411 34.9469 1.77589C31.6603 1.03833 28.3 1.02926 25.0585 1.60286C24.9219 1.63022 24.7854 1.64843 24.6488 1.67573C9.10557 4.66238 -3.57847 20.9977 7.52116 34.2008C7.52116 34.2008 4.63473 18.9763 19.2492 11.5734C33.873 4.17973 50.1169 13.9864 51.4372 29.0197C52.7574 44.0621 38.0793 57.4838 23.3467 52.4301C23.3467 52.4301 40.3104 53.2132 44.1619 42.0225C47.2854 32.6346 35.5569 28.7738 30.5038 32.9351C24.7307 37.6882 21.4709 41.121 13.2304 39.6732C5.48158 38.3074 1.40224 31.3052 0.746632 24.121C0.710262 23.6657 0.682905 23.2195 0.664688 22.7642C0.637395 22.8188 0.236753 24.8221 0.136593 27.8724V27.927C0.0455091 28.8559 0 29.7937 0 30.7498C0 35.2206 0.992526 39.4547 2.77719 43.2517C4.90792 48.2688 8.65028 53.1495 15.0606 56.4638C15.0788 56.4727 15.097 56.4822 15.1152 56.4911C18.6846 58.4855 22.7093 59.76 26.9889 60.1243C27.0162 60.1243 27.0435 60.1332 27.0708 60.1332C34.2005 60.9622 40.3923 58.9678 45.373 55.5809C45.5006 55.4984 45.6186 55.4165 45.7462 55.3347C50.8818 51.9293 54.8882 46.9577 57.092 41.1028C58.1939 38.4166 58.7854 35.7943 58.8311 33.5088V33.4814C58.913 32.58 58.9587 31.6694 58.9587 30.7498C58.9587 16.4085 48.7237 4.462 35.1475 1.8214Z" fill="#F5D219"/>
<path d="M32.5026 36.1697C31.4915 39.2929 29.3613 45.2571 31.0091 48.5897C33.0212 51.8859 40.6246 48.5077 43.684 43.5361C46.7618 39.0197 45.432 33.6748 42.0178 32.2726C45.0315 21.8011 42.5732 9.93662 33.9409 0.630732C33.249 -0.143257 31.6921 -0.316284 31.0091 0.749109C30.3261 1.80536 30.7089 3.37149 31.3277 3.94516C39.2498 11.3479 42.5097 21.7465 40.3967 31.8173C36.709 31.5532 33.6591 33.265 32.5026 36.1697Z" fill="#009245"/>
<path d="M24.0477 32.6274C24.0567 32.6183 24.0567 32.6001 24.0659 32.5911C24.0659 32.5819 24.075 32.5819 24.075 32.5728C24.9673 28.357 29.6203 22.7661 29.6203 22.493C29.2832 22.0741 24.2206 27.4828 22.6363 31.7442C22.3449 31.5803 22.0535 31.4073 21.7531 31.2434C23.046 26.554 28.4549 20.6809 28.4454 20.4351C28.1179 19.998 22.2994 25.689 20.3144 30.4239C20.023 30.26 19.7316 30.087 19.4402 29.9231C21.1339 24.7603 27.28 18.6049 27.2711 18.3772C26.9432 17.9129 20.3781 23.8861 17.9924 29.0945C17.7011 28.9215 17.4006 28.7576 17.1092 28.5846C19.2126 22.9482 26.1055 16.5106 26.0964 16.3012C25.7686 15.8186 18.4568 22.0741 15.6614 27.756C15.6614 27.756 15.6614 27.7559 15.6614 27.7651C15.6432 27.7833 15.6341 27.8106 15.6159 27.8379H15.625C14.2683 30.9065 14.933 34.1298 17.1729 35.3045C14.4139 45.2295 16.7541 56.5202 25.0037 65.48C25.6684 66.236 27.1891 66.2455 27.8722 64.9887C28.5552 63.7504 28.2359 62.1115 27.6532 61.5834C20.3144 54.8362 17.1365 45.2477 18.9303 35.8053C21.3888 35.9054 23.1371 34.5669 24.0477 32.6274Z" fill="#009245"/>
<path d="M88.0646 21.451H82.7137C82.0251 21.451 81.6378 21.839 81.6378 22.527V24.636H76V19.142C76 16.832 76.789 16 79.1416 16H103.414C105.767 16 106.556 16.832 106.556 19.142V24.636H100.918V22.527C100.918 21.839 100.531 21.451 99.8423 21.451H94.4914V50.817H88.0646V21.451Z" fill="#F5D219"/>
<path d="M110.214 32.181C110.214 31.45 109.827 31.105 109.138 31.105H107.173V25.812H113.112C115.422 25.812 116.397 26.845 116.397 29.14V44.49C116.397 45.178 116.784 45.566 117.473 45.566H119.438V50.816H113.499C111.19 50.816 110.214 49.841 110.214 47.488V32.181ZM110.515 16H115.909V21.738H110.515V16Z" fill="#F5D219"/>
<path d="M124.689 32.1821C124.689 31.4501 124.301 31.1061 123.613 31.1061H121.647V25.8121H127.386C129.595 25.8121 130.671 26.8451 130.671 28.6101V29.3411C130.671 29.8861 130.628 30.4171 130.628 30.4171H130.728C131.905 27.9641 134.903 25.2241 138.819 25.2241C142.592 25.2241 145.045 26.9891 146.121 30.3741H146.221C147.541 27.6771 150.783 25.2241 154.757 25.2241C159.95 25.2241 162.948 28.1651 162.948 34.7351V44.4901C162.948 45.1791 163.336 45.5661 164.024 45.5661H165.932V50.8171H160.036C157.684 50.8171 156.708 49.8411 156.708 47.4881V35.9121C156.708 33.0711 156.163 30.9051 153.279 30.9051C150.195 30.9051 147.986 33.5021 147.297 36.6431C146.996 37.6191 146.91 38.6521 146.91 39.8281V50.8171H140.684V35.9121C140.684 33.2151 140.297 30.9051 137.298 30.9051C134.157 30.9051 132.048 33.5021 131.273 36.6861C131.029 37.6621 130.886 38.6951 130.886 39.8281V50.8171H124.703V32.1821H124.689Z" fill="#F5D219"/>
<path d="M167.683 46.742L183.319 24.578C184.74 22.613 185.973 21.436 185.973 21.436V21.336C185.973 21.336 184.94 21.436 183.319 21.436H174.884C174.196 21.436 173.808 21.824 173.808 22.512V24.621H167.97V19.328C167.97 17.018 168.945 16 171.298 16H193.906V20.016L178.27 42.223C176.849 44.232 175.616 45.365 175.616 45.365V45.465C175.616 45.465 176.649 45.365 178.27 45.365H187.781C188.469 45.365 188.857 44.978 188.857 44.289V42.18H194.638V47.474C194.638 49.826 193.662 50.802 191.31 50.802H167.683V46.742Z" fill="#009245"/>
<path d="M199.946 32.181C199.946 31.45 199.558 31.105 198.87 31.105H196.904V25.812H202.843C205.153 25.812 206.128 26.845 206.128 29.14V44.49C206.128 45.178 206.516 45.566 207.204 45.566H209.17V50.816H203.231C200.921 50.816 199.946 49.841 199.946 47.488V32.181ZM200.232 16H205.626V21.738H200.232V16Z" fill="#009245"/>
</svg>
